<?xml version="1.0" encoding="utf-8" standalone="no"?>
<!DOCTYPE svg PUBLIC "-//W3C//DTD SVG 1.1//EN"
  "http://www.w3.org/Graphics/SVG/1.1/DTD/svg11.dtd">
<svg xmlns:xlink="http://www.w3.org/1999/xlink" width="640.94875pt" height="338.23375pt" viewBox="0 0 640.94875 338.23375" xmlns="http://www.w3.org/2000/svg" version="1.1">
 <metadata>
  <rdf:RDF xmlns:dc="http://purl.org/dc/elements/1.1/" xmlns:cc="http://creativecommons.org/ns#" xmlns:rdf="http://www.w3.org/1999/02/22-rdf-syntax-ns#">
   <cc:Work>
    <dc:type rdf:resource="http://purl.org/dc/dcmitype/StillImage"/>
    <dc:date>2026-07-17T14:28:10.178635</dc:date>
    <dc:format>image/svg+xml</dc:format>
    <dc:creator>
     <cc:Agent>
      <dc:title>Matplotlib v3.10.8, https://matplotlib.org/</dc:title>
     </cc:Agent>
    </dc:creator>
   </cc:Work>
  </rdf:RDF>
 </metadata>
 <defs>
  <style type="text/css">*{stroke-linejoin: round; stroke-linecap: butt}</style>
 </defs>
 <g id="figure_1">
  <g id="patch_1">
   <path d="M 0 338.23375 
L 640.94875 338.23375 
L 640.94875 0 
L 0 0 
z
" style="fill: #fffdf8"/>
  </g>
  <g id="axes_1">
   <g id="patch_2">
    <path d="M 78.96875 300.6775 
L 633.74875 300.6775 
L 633.74875 25.3575 
L 78.96875 25.3575 
z
" style="fill: #fffdf8"/>
   </g>
   <g id="matplotlib.axis_1">
    <g id="xtick_1">
     <g id="line2d_1">
      <path d="M 78.96875 300.6775 
L 78.96875 25.3575 
" clip-path="url(#pce872a3511)" style="fill: none; stroke: #e7e2d8; stroke-width: 0.8; stroke-linecap: square"/>
     </g>
     <g id="line2d_2">
      <defs>
       <path id="m6384037ae5" d="M 0 0 
L 0 3.5 
" style="stroke: #657169; stroke-width: 0.8"/>
      </defs>
      <g>
       <use xlink:href="#m6384037ae5" x="78.96875" y="300.6775" style="fill: #657169; stroke: #657169; stroke-width: 0.8"/>
      </g>
     </g>
     <g id="text_1">
      <!-- 0 -->
      <g style="fill: #657169" transform="translate(75.7875 315.275937) scale(0.1 -0.1)">
       <defs>
        <path id="DejaVuSans-30" d="M 2034 4250 
Q 1547 4250 1301 3770 
Q 1056 3291 1056 2328 
Q 1056 1369 1301 889 
Q 1547 409 2034 409 
Q 2525 409 2770 889 
Q 3016 1369 3016 2328 
Q 3016 3291 2770 3770 
Q 2525 4250 2034 4250 
z
M 2034 4750 
Q 2819 4750 3233 4129 
Q 3647 3509 3647 2328 
Q 3647 1150 3233 529 
Q 2819 -91 2034 -91 
Q 1250 -91 836 529 
Q 422 1150 422 2328 
Q 422 3509 836 4129 
Q 1250 4750 2034 4750 
z
" transform="scale(0.015625)"/>
       </defs>
       <use xlink:href="#DejaVuSans-30"/>
      </g>
     </g>
    </g>
    <g id="xtick_2">
     <g id="line2d_3">
      <path d="M 169.801931 300.6775 
L 169.801931 25.3575 
" clip-path="url(#pce872a3511)" style="fill: none; stroke: #e7e2d8; stroke-width: 0.8; stroke-linecap: square"/>
     </g>
     <g id="line2d_4">
      <g>
       <use xlink:href="#m6384037ae5" x="169.801931" y="300.6775" style="fill: #657169; stroke: #657169; stroke-width: 0.8"/>
      </g>
     </g>
     <g id="text_2">
      <!-- 10 -->
      <g style="fill: #657169" transform="translate(163.439431 315.275937) scale(0.1 -0.1)">
       <defs>
        <path id="DejaVuSans-31" d="M 794 531 
L 1825 531 
L 1825 4091 
L 703 3866 
L 703 4441 
L 1819 4666 
L 2450 4666 
L 2450 531 
L 3481 531 
L 3481 0 
L 794 0 
L 794 531 
z
" transform="scale(0.015625)"/>
       </defs>
       <use xlink:href="#DejaVuSans-31"/>
       <use xlink:href="#DejaVuSans-30" transform="translate(63.623047 0)"/>
      </g>
     </g>
    </g>
    <g id="xtick_3">
     <g id="line2d_5">
      <path d="M 260.635111 300.6775 
L 260.635111 25.3575 
" clip-path="url(#pce872a3511)" style="fill: none; stroke: #e7e2d8; stroke-width: 0.8; stroke-linecap: square"/>
     </g>
     <g id="line2d_6">
      <g>
       <use xlink:href="#m6384037ae5" x="260.635111" y="300.6775" style="fill: #657169; stroke: #657169; stroke-width: 0.8"/>
      </g>
     </g>
     <g id="text_3">
      <!-- 20 -->
      <g style="fill: #657169" transform="translate(254.272611 315.275937) scale(0.1 -0.1)">
       <defs>
        <path id="DejaVuSans-32" d="M 1228 531 
L 3431 531 
L 3431 0 
L 469 0 
L 469 531 
Q 828 903 1448 1529 
Q 2069 2156 2228 2338 
Q 2531 2678 2651 2914 
Q 2772 3150 2772 3378 
Q 2772 3750 2511 3984 
Q 2250 4219 1831 4219 
Q 1534 4219 1204 4116 
Q 875 4013 500 3803 
L 500 4441 
Q 881 4594 1212 4672 
Q 1544 4750 1819 4750 
Q 2544 4750 2975 4387 
Q 3406 4025 3406 3419 
Q 3406 3131 3298 2873 
Q 3191 2616 2906 2266 
Q 2828 2175 2409 1742 
Q 1991 1309 1228 531 
z
" transform="scale(0.015625)"/>
       </defs>
       <use xlink:href="#DejaVuSans-32"/>
       <use xlink:href="#DejaVuSans-30" transform="translate(63.623047 0)"/>
      </g>
     </g>
    </g>
    <g id="xtick_4">
     <g id="line2d_7">
      <path d="M 351.468292 300.6775 
L 351.468292 25.3575 
" clip-path="url(#pce872a3511)" style="fill: none; stroke: #e7e2d8; stroke-width: 0.8; stroke-linecap: square"/>
     </g>
     <g id="line2d_8">
      <g>
       <use xlink:href="#m6384037ae5" x="351.468292" y="300.6775" style="fill: #657169; stroke: #657169; stroke-width: 0.8"/>
      </g>
     </g>
     <g id="text_4">
      <!-- 30 -->
      <g style="fill: #657169" transform="translate(345.105792 315.275937) scale(0.1 -0.1)">
       <defs>
        <path id="DejaVuSans-33" d="M 2597 2516 
Q 3050 2419 3304 2112 
Q 3559 1806 3559 1356 
Q 3559 666 3084 287 
Q 2609 -91 1734 -91 
Q 1441 -91 1130 -33 
Q 819 25 488 141 
L 488 750 
Q 750 597 1062 519 
Q 1375 441 1716 441 
Q 2309 441 2620 675 
Q 2931 909 2931 1356 
Q 2931 1769 2642 2001 
Q 2353 2234 1838 2234 
L 1294 2234 
L 1294 2753 
L 1863 2753 
Q 2328 2753 2575 2939 
Q 2822 3125 2822 3475 
Q 2822 3834 2567 4026 
Q 2313 4219 1838 4219 
Q 1578 4219 1281 4162 
Q 984 4106 628 3988 
L 628 4550 
Q 988 4650 1302 4700 
Q 1616 4750 1894 4750 
Q 2613 4750 3031 4423 
Q 3450 4097 3450 3541 
Q 3450 3153 3228 2886 
Q 3006 2619 2597 2516 
z
" transform="scale(0.015625)"/>
       </defs>
       <use xlink:href="#DejaVuSans-33"/>
       <use xlink:href="#DejaVuSans-30" transform="translate(63.623047 0)"/>
      </g>
     </g>
    </g>
    <g id="xtick_5">
     <g id="line2d_9">
      <path d="M 442.301472 300.6775 
L 442.301472 25.3575 
" clip-path="url(#pce872a3511)" style="fill: none; stroke: #e7e2d8; stroke-width: 0.8; stroke-linecap: square"/>
     </g>
     <g id="line2d_10">
      <g>
       <use xlink:href="#m6384037ae5" x="442.301472" y="300.6775" style="fill: #657169; stroke: #657169; stroke-width: 0.8"/>
      </g>
     </g>
     <g id="text_5">
      <!-- 40 -->
      <g style="fill: #657169" transform="translate(435.938972 315.275937) scale(0.1 -0.1)">
       <defs>
        <path id="DejaVuSans-34" d="M 2419 4116 
L 825 1625 
L 2419 1625 
L 2419 4116 
z
M 2253 4666 
L 3047 4666 
L 3047 1625 
L 3713 1625 
L 3713 1100 
L 3047 1100 
L 3047 0 
L 2419 0 
L 2419 1100 
L 313 1100 
L 313 1709 
L 2253 4666 
z
" transform="scale(0.015625)"/>
       </defs>
       <use xlink:href="#DejaVuSans-34"/>
       <use xlink:href="#DejaVuSans-30" transform="translate(63.623047 0)"/>
      </g>
     </g>
    </g>
    <g id="xtick_6">
     <g id="line2d_11">
      <path d="M 533.134653 300.6775 
L 533.134653 25.3575 
" clip-path="url(#pce872a3511)" style="fill: none; stroke: #e7e2d8; stroke-width: 0.8; stroke-linecap: square"/>
     </g>
     <g id="line2d_12">
      <g>
       <use xlink:href="#m6384037ae5" x="533.134653" y="300.6775" style="fill: #657169; stroke: #657169; stroke-width: 0.8"/>
      </g>
     </g>
     <g id="text_6">
      <!-- 50 -->
      <g style="fill: #657169" transform="translate(526.772153 315.275937) scale(0.1 -0.1)">
       <defs>
        <path id="DejaVuSans-35" d="M 691 4666 
L 3169 4666 
L 3169 4134 
L 1269 4134 
L 1269 2991 
Q 1406 3038 1543 3061 
Q 1681 3084 1819 3084 
Q 2600 3084 3056 2656 
Q 3513 2228 3513 1497 
Q 3513 744 3044 326 
Q 2575 -91 1722 -91 
Q 1428 -91 1123 -41 
Q 819 9 494 109 
L 494 744 
Q 775 591 1075 516 
Q 1375 441 1709 441 
Q 2250 441 2565 725 
Q 2881 1009 2881 1497 
Q 2881 1984 2565 2268 
Q 2250 2553 1709 2553 
Q 1456 2553 1204 2497 
Q 953 2441 691 2322 
L 691 4666 
z
" transform="scale(0.015625)"/>
       </defs>
       <use xlink:href="#DejaVuSans-35"/>
       <use xlink:href="#DejaVuSans-30" transform="translate(63.623047 0)"/>
      </g>
     </g>
    </g>
    <g id="xtick_7">
     <g id="line2d_13">
      <path d="M 623.967833 300.6775 
L 623.967833 25.3575 
" clip-path="url(#pce872a3511)" style="fill: none; stroke: #e7e2d8; stroke-width: 0.8; stroke-linecap: square"/>
     </g>
     <g id="line2d_14">
      <g>
       <use xlink:href="#m6384037ae5" x="623.967833" y="300.6775" style="fill: #657169; stroke: #657169; stroke-width: 0.8"/>
      </g>
     </g>
     <g id="text_7">
      <!-- 60 -->
      <g style="fill: #657169" transform="translate(617.605333 315.275937) scale(0.1 -0.1)">
       <defs>
        <path id="DejaVuSans-36" d="M 2113 2584 
Q 1688 2584 1439 2293 
Q 1191 2003 1191 1497 
Q 1191 994 1439 701 
Q 1688 409 2113 409 
Q 2538 409 2786 701 
Q 3034 994 3034 1497 
Q 3034 2003 2786 2293 
Q 2538 2584 2113 2584 
z
M 3366 4563 
L 3366 3988 
Q 3128 4100 2886 4159 
Q 2644 4219 2406 4219 
Q 1781 4219 1451 3797 
Q 1122 3375 1075 2522 
Q 1259 2794 1537 2939 
Q 1816 3084 2150 3084 
Q 2853 3084 3261 2657 
Q 3669 2231 3669 1497 
Q 3669 778 3244 343 
Q 2819 -91 2113 -91 
Q 1303 -91 875 529 
Q 447 1150 447 2328 
Q 447 3434 972 4092 
Q 1497 4750 2381 4750 
Q 2619 4750 2861 4703 
Q 3103 4656 3366 4563 
z
" transform="scale(0.015625)"/>
       </defs>
       <use xlink:href="#DejaVuSans-36"/>
       <use xlink:href="#DejaVuSans-30" transform="translate(63.623047 0)"/>
      </g>
     </g>
    </g>
    <g id="text_8">
     <!-- Euros per seven-day basket -->
     <g style="fill: #657169" transform="translate(286.868906 328.954062) scale(0.1 -0.1)">
      <defs>
       <path id="DejaVuSans-45" d="M 628 4666 
L 3578 4666 
L 3578 4134 
L 1259 4134 
L 1259 2753 
L 3481 2753 
L 3481 2222 
L 1259 2222 
L 1259 531 
L 3634 531 
L 3634 0 
L 628 0 
L 628 4666 
z
" transform="scale(0.015625)"/>
       <path id="DejaVuSans-75" d="M 544 1381 
L 544 3500 
L 1119 3500 
L 1119 1403 
Q 1119 906 1312 657 
Q 1506 409 1894 409 
Q 2359 409 2629 706 
Q 2900 1003 2900 1516 
L 2900 3500 
L 3475 3500 
L 3475 0 
L 2900 0 
L 2900 538 
Q 2691 219 2414 64 
Q 2138 -91 1772 -91 
Q 1169 -91 856 284 
Q 544 659 544 1381 
z
M 1991 3584 
L 1991 3584 
z
" transform="scale(0.015625)"/>
       <path id="DejaVuSans-72" d="M 2631 2963 
Q 2534 3019 2420 3045 
Q 2306 3072 2169 3072 
Q 1681 3072 1420 2755 
Q 1159 2438 1159 1844 
L 1159 0 
L 581 0 
L 581 3500 
L 1159 3500 
L 1159 2956 
Q 1341 3275 1631 3429 
Q 1922 3584 2338 3584 
Q 2397 3584 2469 3576 
Q 2541 3569 2628 3553 
L 2631 2963 
z
" transform="scale(0.015625)"/>
       <path id="DejaVuSans-6f" d="M 1959 3097 
Q 1497 3097 1228 2736 
Q 959 2375 959 1747 
Q 959 1119 1226 758 
Q 1494 397 1959 397 
Q 2419 397 2687 759 
Q 2956 1122 2956 1747 
Q 2956 2369 2687 2733 
Q 2419 3097 1959 3097 
z
M 1959 3584 
Q 2709 3584 3137 3096 
Q 3566 2609 3566 1747 
Q 3566 888 3137 398 
Q 2709 -91 1959 -91 
Q 1206 -91 779 398 
Q 353 888 353 1747 
Q 353 2609 779 3096 
Q 1206 3584 1959 3584 
z
" transform="scale(0.015625)"/>
       <path id="DejaVuSans-73" d="M 2834 3397 
L 2834 2853 
Q 2591 2978 2328 3040 
Q 2066 3103 1784 3103 
Q 1356 3103 1142 2972 
Q 928 2841 928 2578 
Q 928 2378 1081 2264 
Q 1234 2150 1697 2047 
L 1894 2003 
Q 2506 1872 2764 1633 
Q 3022 1394 3022 966 
Q 3022 478 2636 193 
Q 2250 -91 1575 -91 
Q 1294 -91 989 -36 
Q 684 19 347 128 
L 347 722 
Q 666 556 975 473 
Q 1284 391 1588 391 
Q 1994 391 2212 530 
Q 2431 669 2431 922 
Q 2431 1156 2273 1281 
Q 2116 1406 1581 1522 
L 1381 1569 
Q 847 1681 609 1914 
Q 372 2147 372 2553 
Q 372 3047 722 3315 
Q 1072 3584 1716 3584 
Q 2034 3584 2315 3537 
Q 2597 3491 2834 3397 
z
" transform="scale(0.015625)"/>
       <path id="DejaVuSans-20" transform="scale(0.015625)"/>
       <path id="DejaVuSans-70" d="M 1159 525 
L 1159 -1331 
L 581 -1331 
L 581 3500 
L 1159 3500 
L 1159 2969 
Q 1341 3281 1617 3432 
Q 1894 3584 2278 3584 
Q 2916 3584 3314 3078 
Q 3713 2572 3713 1747 
Q 3713 922 3314 415 
Q 2916 -91 2278 -91 
Q 1894 -91 1617 61 
Q 1341 213 1159 525 
z
M 3116 1747 
Q 3116 2381 2855 2742 
Q 2594 3103 2138 3103 
Q 1681 3103 1420 2742 
Q 1159 2381 1159 1747 
Q 1159 1113 1420 752 
Q 1681 391 2138 391 
Q 2594 391 2855 752 
Q 3116 1113 3116 1747 
z
" transform="scale(0.015625)"/>
       <path id="DejaVuSans-65" d="M 3597 1894 
L 3597 1613 
L 953 1613 
Q 991 1019 1311 708 
Q 1631 397 2203 397 
Q 2534 397 2845 478 
Q 3156 559 3463 722 
L 3463 178 
Q 3153 47 2828 -22 
Q 2503 -91 2169 -91 
Q 1331 -91 842 396 
Q 353 884 353 1716 
Q 353 2575 817 3079 
Q 1281 3584 2069 3584 
Q 2775 3584 3186 3129 
Q 3597 2675 3597 1894 
z
M 3022 2063 
Q 3016 2534 2758 2815 
Q 2500 3097 2075 3097 
Q 1594 3097 1305 2825 
Q 1016 2553 972 2059 
L 3022 2063 
z
" transform="scale(0.015625)"/>
       <path id="DejaVuSans-76" d="M 191 3500 
L 800 3500 
L 1894 563 
L 2988 3500 
L 3597 3500 
L 2284 0 
L 1503 0 
L 191 3500 
z
" transform="scale(0.015625)"/>
       <path id="DejaVuSans-6e" d="M 3513 2113 
L 3513 0 
L 2938 0 
L 2938 2094 
Q 2938 2591 2744 2837 
Q 2550 3084 2163 3084 
Q 1697 3084 1428 2787 
Q 1159 2491 1159 1978 
L 1159 0 
L 581 0 
L 581 3500 
L 1159 3500 
L 1159 2956 
Q 1366 3272 1645 3428 
Q 1925 3584 2291 3584 
Q 2894 3584 3203 3211 
Q 3513 2838 3513 2113 
z
" transform="scale(0.015625)"/>
       <path id="DejaVuSans-2d" d="M 313 2009 
L 1997 2009 
L 1997 1497 
L 313 1497 
L 313 2009 
z
" transform="scale(0.015625)"/>
       <path id="DejaVuSans-64" d="M 2906 2969 
L 2906 4863 
L 3481 4863 
L 3481 0 
L 2906 0 
L 2906 525 
Q 2725 213 2448 61 
Q 2172 -91 1784 -91 
Q 1150 -91 751 415 
Q 353 922 353 1747 
Q 353 2572 751 3078 
Q 1150 3584 1784 3584 
Q 2172 3584 2448 3432 
Q 2725 3281 2906 2969 
z
M 947 1747 
Q 947 1113 1208 752 
Q 1469 391 1925 391 
Q 2381 391 2643 752 
Q 2906 1113 2906 1747 
Q 2906 2381 2643 2742 
Q 2381 3103 1925 3103 
Q 1469 3103 1208 2742 
Q 947 2381 947 1747 
z
" transform="scale(0.015625)"/>
       <path id="DejaVuSans-61" d="M 2194 1759 
Q 1497 1759 1228 1600 
Q 959 1441 959 1056 
Q 959 750 1161 570 
Q 1363 391 1709 391 
Q 2188 391 2477 730 
Q 2766 1069 2766 1631 
L 2766 1759 
L 2194 1759 
z
M 3341 1997 
L 3341 0 
L 2766 0 
L 2766 531 
Q 2569 213 2275 61 
Q 1981 -91 1556 -91 
Q 1019 -91 701 211 
Q 384 513 384 1019 
Q 384 1609 779 1909 
Q 1175 2209 1959 2209 
L 2766 2209 
L 2766 2266 
Q 2766 2663 2505 2880 
Q 2244 3097 1772 3097 
Q 1472 3097 1187 3025 
Q 903 2953 641 2809 
L 641 3341 
Q 956 3463 1253 3523 
Q 1550 3584 1831 3584 
Q 2591 3584 2966 3190 
Q 3341 2797 3341 1997 
z
" transform="scale(0.015625)"/>
       <path id="DejaVuSans-79" d="M 2059 -325 
Q 1816 -950 1584 -1140 
Q 1353 -1331 966 -1331 
L 506 -1331 
L 506 -850 
L 844 -850 
Q 1081 -850 1212 -737 
Q 1344 -625 1503 -206 
L 1606 56 
L 191 3500 
L 800 3500 
L 1894 763 
L 2988 3500 
L 3597 3500 
L 2059 -325 
z
" transform="scale(0.015625)"/>
       <path id="DejaVuSans-62" d="M 3116 1747 
Q 3116 2381 2855 2742 
Q 2594 3103 2138 3103 
Q 1681 3103 1420 2742 
Q 1159 2381 1159 1747 
Q 1159 1113 1420 752 
Q 1681 391 2138 391 
Q 2594 391 2855 752 
Q 3116 1113 3116 1747 
z
M 1159 2969 
Q 1341 3281 1617 3432 
Q 1894 3584 2278 3584 
Q 2916 3584 3314 3078 
Q 3713 2572 3713 1747 
Q 3713 922 3314 415 
Q 2916 -91 2278 -91 
Q 1894 -91 1617 61 
Q 1341 213 1159 525 
L 1159 0 
L 581 0 
L 581 4863 
L 1159 4863 
L 1159 2969 
z
" transform="scale(0.015625)"/>
       <path id="DejaVuSans-6b" d="M 581 4863 
L 1159 4863 
L 1159 1991 
L 2875 3500 
L 3609 3500 
L 1753 1863 
L 3688 0 
L 2938 0 
L 1159 1709 
L 1159 0 
L 581 0 
L 581 4863 
z
" transform="scale(0.015625)"/>
       <path id="DejaVuSans-74" d="M 1172 4494 
L 1172 3500 
L 2356 3500 
L 2356 3053 
L 1172 3053 
L 1172 1153 
Q 1172 725 1289 603 
Q 1406 481 1766 481 
L 2356 481 
L 2356 0 
L 1766 0 
Q 1100 0 847 248 
Q 594 497 594 1153 
L 594 3053 
L 172 3053 
L 172 3500 
L 594 3500 
L 594 4494 
L 1172 4494 
z
" transform="scale(0.015625)"/>
      </defs>
      <use xlink:href="#DejaVuSans-45"/>
      <use xlink:href="#DejaVuSans-75" transform="translate(63.183594 0)"/>
      <use xlink:href="#DejaVuSans-72" transform="translate(126.5625 0)"/>
      <use xlink:href="#DejaVuSans-6f" transform="translate(165.425781 0)"/>
      <use xlink:href="#DejaVuSans-73" transform="translate(226.607422 0)"/>
      <use xlink:href="#DejaVuSans-20" transform="translate(278.707031 0)"/>
      <use xlink:href="#DejaVuSans-70" transform="translate(310.494141 0)"/>
      <use xlink:href="#DejaVuSans-65" transform="translate(373.970703 0)"/>
      <use xlink:href="#DejaVuSans-72" transform="translate(435.494141 0)"/>
      <use xlink:href="#DejaVuSans-20" transform="translate(476.607422 0)"/>
      <use xlink:href="#DejaVuSans-73" transform="translate(508.394531 0)"/>
      <use xlink:href="#DejaVuSans-65" transform="translate(560.494141 0)"/>
      <use xlink:href="#DejaVuSans-76" transform="translate(622.017578 0)"/>
      <use xlink:href="#DejaVuSans-65" transform="translate(681.197266 0)"/>
      <use xlink:href="#DejaVuSans-6e" transform="translate(742.720703 0)"/>
      <use xlink:href="#DejaVuSans-2d" transform="translate(806.099609 0)"/>
      <use xlink:href="#DejaVuSans-64" transform="translate(842.183594 0)"/>
      <use xlink:href="#DejaVuSans-61" transform="translate(905.660156 0)"/>
      <use xlink:href="#DejaVuSans-79" transform="translate(966.939453 0)"/>
      <use xlink:href="#DejaVuSans-20" transform="translate(1026.119141 0)"/>
      <use xlink:href="#DejaVuSans-62" transform="translate(1057.90625 0)"/>
      <use xlink:href="#DejaVuSans-61" transform="translate(1121.382812 0)"/>
      <use xlink:href="#DejaVuSans-73" transform="translate(1182.662109 0)"/>
      <use xlink:href="#DejaVuSans-6b" transform="translate(1234.761719 0)"/>
      <use xlink:href="#DejaVuSans-65" transform="translate(1289.046875 0)"/>
      <use xlink:href="#DejaVuSans-74" transform="translate(1350.570312 0)"/>
     </g>
    </g>
   </g>
   <g id="matplotlib.axis_2">
    <g id="ytick_1">
     <g id="line2d_15">
      <defs>
       <path id="m4b37942afd" d="M 0 0 
L -3.5 0 
" style="stroke: #657169; stroke-width: 0.8"/>
      </defs>
      <g>
       <use xlink:href="#m4b37942afd" x="78.96875" y="261.816543" style="fill: #657169; stroke: #657169; stroke-width: 0.8"/>
      </g>
     </g>
     <g id="text_9">
      <!-- Budget cut -->
      <g style="fill: #657169" transform="translate(17.065625 265.615762) scale(0.1 -0.1)">
       <defs>
        <path id="DejaVuSans-42" d="M 1259 2228 
L 1259 519 
L 2272 519 
Q 2781 519 3026 730 
Q 3272 941 3272 1375 
Q 3272 1813 3026 2020 
Q 2781 2228 2272 2228 
L 1259 2228 
z
M 1259 4147 
L 1259 2741 
L 2194 2741 
Q 2656 2741 2882 2914 
Q 3109 3088 3109 3444 
Q 3109 3797 2882 3972 
Q 2656 4147 2194 4147 
L 1259 4147 
z
M 628 4666 
L 2241 4666 
Q 2963 4666 3353 4366 
Q 3744 4066 3744 3513 
Q 3744 3084 3544 2831 
Q 3344 2578 2956 2516 
Q 3422 2416 3680 2098 
Q 3938 1781 3938 1306 
Q 3938 681 3513 340 
Q 3088 0 2303 0 
L 628 0 
L 628 4666 
z
" transform="scale(0.015625)"/>
        <path id="DejaVuSans-67" d="M 2906 1791 
Q 2906 2416 2648 2759 
Q 2391 3103 1925 3103 
Q 1463 3103 1205 2759 
Q 947 2416 947 1791 
Q 947 1169 1205 825 
Q 1463 481 1925 481 
Q 2391 481 2648 825 
Q 2906 1169 2906 1791 
z
M 3481 434 
Q 3481 -459 3084 -895 
Q 2688 -1331 1869 -1331 
Q 1566 -1331 1297 -1286 
Q 1028 -1241 775 -1147 
L 775 -588 
Q 1028 -725 1275 -790 
Q 1522 -856 1778 -856 
Q 2344 -856 2625 -561 
Q 2906 -266 2906 331 
L 2906 616 
Q 2728 306 2450 153 
Q 2172 0 1784 0 
Q 1141 0 747 490 
Q 353 981 353 1791 
Q 353 2603 747 3093 
Q 1141 3584 1784 3584 
Q 2172 3584 2450 3431 
Q 2728 3278 2906 2969 
L 2906 3500 
L 3481 3500 
L 3481 434 
z
" transform="scale(0.015625)"/>
        <path id="DejaVuSans-63" d="M 3122 3366 
L 3122 2828 
Q 2878 2963 2633 3030 
Q 2388 3097 2138 3097 
Q 1578 3097 1268 2742 
Q 959 2388 959 1747 
Q 959 1106 1268 751 
Q 1578 397 2138 397 
Q 2388 397 2633 464 
Q 2878 531 3122 666 
L 3122 134 
Q 2881 22 2623 -34 
Q 2366 -91 2075 -91 
Q 1284 -91 818 406 
Q 353 903 353 1747 
Q 353 2603 823 3093 
Q 1294 3584 2113 3584 
Q 2378 3584 2631 3529 
Q 2884 3475 3122 3366 
z
" transform="scale(0.015625)"/>
       </defs>
       <use xlink:href="#DejaVuSans-42"/>
       <use xlink:href="#DejaVuSans-75" transform="translate(68.603516 0)"/>
       <use xlink:href="#DejaVuSans-64" transform="translate(131.982422 0)"/>
       <use xlink:href="#DejaVuSans-67" transform="translate(195.458984 0)"/>
       <use xlink:href="#DejaVuSans-65" transform="translate(258.935547 0)"/>
       <use xlink:href="#DejaVuSans-74" transform="translate(320.458984 0)"/>
       <use xlink:href="#DejaVuSans-20" transform="translate(359.667969 0)"/>
       <use xlink:href="#DejaVuSans-63" transform="translate(391.455078 0)"/>
       <use xlink:href="#DejaVuSans-75" transform="translate(446.435547 0)"/>
       <use xlink:href="#DejaVuSans-74" transform="translate(509.814453 0)"/>
      </g>
     </g>
    </g>
    <g id="ytick_2">
     <g id="line2d_16">
      <g>
       <use xlink:href="#m4b37942afd" x="78.96875" y="195.950514" style="fill: #657169; stroke: #657169; stroke-width: 0.8"/>
      </g>
     </g>
     <g id="text_10">
      <!-- Balanced -->
      <g style="fill: #657169" transform="translate(25.735937 199.749733) scale(0.1 -0.1)">
       <defs>
        <path id="DejaVuSans-6c" d="M 603 4863 
L 1178 4863 
L 1178 0 
L 603 0 
L 603 4863 
z
" transform="scale(0.015625)"/>
       </defs>
       <use xlink:href="#DejaVuSans-42"/>
       <use xlink:href="#DejaVuSans-61" transform="translate(68.603516 0)"/>
       <use xlink:href="#DejaVuSans-6c" transform="translate(129.882812 0)"/>
       <use xlink:href="#DejaVuSans-61" transform="translate(157.666016 0)"/>
       <use xlink:href="#DejaVuSans-6e" transform="translate(218.945312 0)"/>
       <use xlink:href="#DejaVuSans-63" transform="translate(282.324219 0)"/>
       <use xlink:href="#DejaVuSans-65" transform="translate(337.304688 0)"/>
       <use xlink:href="#DejaVuSans-64" transform="translate(398.828125 0)"/>
      </g>
     </g>
    </g>
    <g id="ytick_3">
     <g id="line2d_17">
      <g>
       <use xlink:href="#m4b37942afd" x="78.96875" y="130.084486" style="fill: #657169; stroke: #657169; stroke-width: 0.8"/>
      </g>
     </g>
     <g id="text_11">
      <!-- Convenience -->
      <g style="fill: #657169" transform="translate(7.2 133.883704) scale(0.1 -0.1)">
       <defs>
        <path id="DejaVuSans-43" d="M 4122 4306 
L 4122 3641 
Q 3803 3938 3442 4084 
Q 3081 4231 2675 4231 
Q 1875 4231 1450 3742 
Q 1025 3253 1025 2328 
Q 1025 1406 1450 917 
Q 1875 428 2675 428 
Q 3081 428 3442 575 
Q 3803 722 4122 1019 
L 4122 359 
Q 3791 134 3420 21 
Q 3050 -91 2638 -91 
Q 1578 -91 968 557 
Q 359 1206 359 2328 
Q 359 3453 968 4101 
Q 1578 4750 2638 4750 
Q 3056 4750 3426 4639 
Q 3797 4528 4122 4306 
z
" transform="scale(0.015625)"/>
        <path id="DejaVuSans-69" d="M 603 3500 
L 1178 3500 
L 1178 0 
L 603 0 
L 603 3500 
z
M 603 4863 
L 1178 4863 
L 1178 4134 
L 603 4134 
L 603 4863 
z
" transform="scale(0.015625)"/>
       </defs>
       <use xlink:href="#DejaVuSans-43"/>
       <use xlink:href="#DejaVuSans-6f" transform="translate(69.824219 0)"/>
       <use xlink:href="#DejaVuSans-6e" transform="translate(131.005859 0)"/>
       <use xlink:href="#DejaVuSans-76" transform="translate(194.384766 0)"/>
       <use xlink:href="#DejaVuSans-65" transform="translate(253.564453 0)"/>
       <use xlink:href="#DejaVuSans-6e" transform="translate(315.087891 0)"/>
       <use xlink:href="#DejaVuSans-69" transform="translate(378.466797 0)"/>
       <use xlink:href="#DejaVuSans-65" transform="translate(406.25 0)"/>
       <use xlink:href="#DejaVuSans-6e" transform="translate(467.773438 0)"/>
       <use xlink:href="#DejaVuSans-63" transform="translate(531.152344 0)"/>
       <use xlink:href="#DejaVuSans-65" transform="translate(586.132812 0)"/>
      </g>
     </g>
    </g>
    <g id="ytick_4">
     <g id="line2d_18">
      <g>
       <use xlink:href="#m4b37942afd" x="78.96875" y="64.218457" style="fill: #657169; stroke: #657169; stroke-width: 0.8"/>
      </g>
     </g>
     <g id="text_12">
      <!-- High protein -->
      <g style="fill: #657169" transform="translate(10.264062 68.017676) scale(0.1 -0.1)">
       <defs>
        <path id="DejaVuSans-48" d="M 628 4666 
L 1259 4666 
L 1259 2753 
L 3553 2753 
L 3553 4666 
L 4184 4666 
L 4184 0 
L 3553 0 
L 3553 2222 
L 1259 2222 
L 1259 0 
L 628 0 
L 628 4666 
z
" transform="scale(0.015625)"/>
        <path id="DejaVuSans-68" d="M 3513 2113 
L 3513 0 
L 2938 0 
L 2938 2094 
Q 2938 2591 2744 2837 
Q 2550 3084 2163 3084 
Q 1697 3084 1428 2787 
Q 1159 2491 1159 1978 
L 1159 0 
L 581 0 
L 581 4863 
L 1159 4863 
L 1159 2956 
Q 1366 3272 1645 3428 
Q 1925 3584 2291 3584 
Q 2894 3584 3203 3211 
Q 3513 2838 3513 2113 
z
" transform="scale(0.015625)"/>
       </defs>
       <use xlink:href="#DejaVuSans-48"/>
       <use xlink:href="#DejaVuSans-69" transform="translate(75.195312 0)"/>
       <use xlink:href="#DejaVuSans-67" transform="translate(102.978516 0)"/>
       <use xlink:href="#DejaVuSans-68" transform="translate(166.455078 0)"/>
       <use xlink:href="#DejaVuSans-20" transform="translate(229.833984 0)"/>
       <use xlink:href="#DejaVuSans-70" transform="translate(261.621094 0)"/>
       <use xlink:href="#DejaVuSans-72" transform="translate(325.097656 0)"/>
       <use xlink:href="#DejaVuSans-6f" transform="translate(363.960938 0)"/>
       <use xlink:href="#DejaVuSans-74" transform="translate(425.142578 0)"/>
       <use xlink:href="#DejaVuSans-65" transform="translate(464.351562 0)"/>
       <use xlink:href="#DejaVuSans-69" transform="translate(525.875 0)"/>
       <use xlink:href="#DejaVuSans-6e" transform="translate(553.658203 0)"/>
      </g>
     </g>
    </g>
   </g>
   <g id="patch_3">
    <path d="M 78.96875 288.162955 
L 451.929789 288.162955 
L 451.929789 235.470132 
L 78.96875 235.470132 
z
" clip-path="url(#pce872a3511)" style="fill: #4d7a62"/>
   </g>
   <g id="patch_4">
    <path d="M 78.96875 222.296926 
L 481.995572 222.296926 
L 481.995572 169.604103 
L 78.96875 169.604103 
z
" clip-path="url(#pce872a3511)" style="fill: #d9a441"/>
   </g>
   <g id="patch_5">
    <path d="M 78.96875 156.430897 
L 529.501325 156.430897 
L 529.501325 103.738074 
L 78.96875 103.738074 
z
" clip-path="url(#pce872a3511)" style="fill: #4d7a62"/>
   </g>
   <g id="patch_6">
    <path d="M 78.96875 90.564868 
L 549.121292 90.564868 
L 549.121292 37.872045 
L 78.96875 37.872045 
z
" clip-path="url(#pce872a3511)" style="fill: #4d7a62"/>
   </g>
   <g id="patch_7">
    <path d="M 78.96875 300.6775 
L 633.74875 300.6775 
" style="fill: none; stroke: #cfc9ba; stroke-width: 0.8; stroke-linejoin: miter; stroke-linecap: square"/>
   </g>
   <g id="text_13">
    <!-- €41.06 -->
    <g style="fill: #17211b" transform="translate(457.929789 264.575918) scale(0.1 -0.1)">
     <defs>
      <path id="DejaVuSans-20ac" d="M 3647 4306 
L 3647 3641 
Q 3363 3969 3098 4109 
Q 2834 4250 2516 4250 
Q 2025 4250 1709 3937 
Q 1394 3625 1294 3041 
L 3097 3041 
L 2925 2656 
L 1244 2656 
Q 1238 2581 1236 2509 
Q 1234 2438 1234 2328 
Q 1234 2228 1236 2156 
Q 1238 2084 1244 2009 
L 2638 2009 
L 2463 1625 
L 1294 1625 
Q 1394 1041 1709 725 
Q 2025 409 2516 409 
Q 2834 409 3098 550 
Q 3363 691 3647 1019 
L 3647 359 
Q 3369 134 3080 21 
Q 2791 -91 2491 -91 
Q 1750 -91 1267 362 
Q 784 816 659 1625 
L 0 1625 
L 172 2009 
L 606 2009 
Q 606 2081 604 2154 
Q 603 2228 603 2328 
Q 603 2438 604 2511 
Q 606 2584 606 2656 
L 0 2656 
L 172 3041 
L 659 3041 
Q 784 3844 1268 4297 
Q 1753 4750 2491 4750 
Q 2797 4750 3086 4639 
Q 3375 4528 3647 4306 
z
" transform="scale(0.015625)"/>
      <path id="DejaVuSans-2e" d="M 684 794 
L 1344 794 
L 1344 0 
L 684 0 
L 684 794 
z
" transform="scale(0.015625)"/>
     </defs>
     <use xlink:href="#DejaVuSans-20ac"/>
     <use xlink:href="#DejaVuSans-34" transform="translate(63.623047 0)"/>
     <use xlink:href="#DejaVuSans-31" transform="translate(127.246094 0)"/>
     <use xlink:href="#DejaVuSans-2e" transform="translate(190.869141 0)"/>
     <use xlink:href="#DejaVuSans-30" transform="translate(222.65625 0)"/>
     <use xlink:href="#DejaVuSans-36" transform="translate(286.279297 0)"/>
    </g>
   </g>
   <g id="text_14">
    <!-- €44.37 -->
    <g style="fill: #17211b" transform="translate(487.995572 198.709889) scale(0.1 -0.1)">
     <defs>
      <path id="DejaVuSans-37" d="M 525 4666 
L 3525 4666 
L 3525 4397 
L 1831 0 
L 1172 0 
L 2766 4134 
L 525 4134 
L 525 4666 
z
" transform="scale(0.015625)"/>
     </defs>
     <use xlink:href="#DejaVuSans-20ac"/>
     <use xlink:href="#DejaVuSans-34" transform="translate(63.623047 0)"/>
     <use xlink:href="#DejaVuSans-34" transform="translate(127.246094 0)"/>
     <use xlink:href="#DejaVuSans-2e" transform="translate(190.869141 0)"/>
     <use xlink:href="#DejaVuSans-33" transform="translate(222.65625 0)"/>
     <use xlink:href="#DejaVuSans-37" transform="translate(286.279297 0)"/>
    </g>
   </g>
   <g id="text_15">
    <!-- €49.60 -->
    <g style="fill: #17211b" transform="translate(535.501325 132.843861) scale(0.1 -0.1)">
     <defs>
      <path id="DejaVuSans-39" d="M 703 97 
L 703 672 
Q 941 559 1184 500 
Q 1428 441 1663 441 
Q 2288 441 2617 861 
Q 2947 1281 2994 2138 
Q 2813 1869 2534 1725 
Q 2256 1581 1919 1581 
Q 1219 1581 811 2004 
Q 403 2428 403 3163 
Q 403 3881 828 4315 
Q 1253 4750 1959 4750 
Q 2769 4750 3195 4129 
Q 3622 3509 3622 2328 
Q 3622 1225 3098 567 
Q 2575 -91 1691 -91 
Q 1453 -91 1209 -44 
Q 966 3 703 97 
z
M 1959 2075 
Q 2384 2075 2632 2365 
Q 2881 2656 2881 3163 
Q 2881 3666 2632 3958 
Q 2384 4250 1959 4250 
Q 1534 4250 1286 3958 
Q 1038 3666 1038 3163 
Q 1038 2656 1286 2365 
Q 1534 2075 1959 2075 
z
" transform="scale(0.015625)"/>
     </defs>
     <use xlink:href="#DejaVuSans-20ac"/>
     <use xlink:href="#DejaVuSans-34" transform="translate(63.623047 0)"/>
     <use xlink:href="#DejaVuSans-39" transform="translate(127.246094 0)"/>
     <use xlink:href="#DejaVuSans-2e" transform="translate(190.869141 0)"/>
     <use xlink:href="#DejaVuSans-36" transform="translate(222.65625 0)"/>
     <use xlink:href="#DejaVuSans-30" transform="translate(286.279297 0)"/>
    </g>
   </g>
   <g id="text_16">
    <!-- €51.76 -->
    <g style="fill: #17211b" transform="translate(555.121292 66.977832) scale(0.1 -0.1)">
     <use xlink:href="#DejaVuSans-20ac"/>
     <use xlink:href="#DejaVuSans-35" transform="translate(63.623047 0)"/>
     <use xlink:href="#DejaVuSans-31" transform="translate(127.246094 0)"/>
     <use xlink:href="#DejaVuSans-2e" transform="translate(190.869141 0)"/>
     <use xlink:href="#DejaVuSans-37" transform="translate(222.65625 0)"/>
     <use xlink:href="#DejaVuSans-36" transform="translate(286.279297 0)"/>
    </g>
   </g>
   <g id="text_17">
    <!-- Illustrative weekly basket cost by scenario -->
    <g style="fill: #17211b" transform="translate(78.96875 19.3575) scale(0.16 -0.16)">
     <defs>
      <path id="DejaVuSans-Bold-49" d="M 588 4666 
L 1791 4666 
L 1791 0 
L 588 0 
L 588 4666 
z
" transform="scale(0.015625)"/>
      <path id="DejaVuSans-Bold-6c" d="M 538 4863 
L 1656 4863 
L 1656 0 
L 538 0 
L 538 4863 
z
" transform="scale(0.015625)"/>
      <path id="DejaVuSans-Bold-75" d="M 500 1363 
L 500 3500 
L 1625 3500 
L 1625 3150 
Q 1625 2866 1622 2436 
Q 1619 2006 1619 1863 
Q 1619 1441 1641 1255 
Q 1663 1069 1716 984 
Q 1784 875 1895 815 
Q 2006 756 2150 756 
Q 2500 756 2700 1025 
Q 2900 1294 2900 1772 
L 2900 3500 
L 4019 3500 
L 4019 0 
L 2900 0 
L 2900 506 
Q 2647 200 2364 54 
Q 2081 -91 1741 -91 
Q 1134 -91 817 281 
Q 500 653 500 1363 
z
" transform="scale(0.015625)"/>
      <path id="DejaVuSans-Bold-73" d="M 3272 3391 
L 3272 2541 
Q 2913 2691 2578 2766 
Q 2244 2841 1947 2841 
Q 1628 2841 1473 2761 
Q 1319 2681 1319 2516 
Q 1319 2381 1436 2309 
Q 1553 2238 1856 2203 
L 2053 2175 
Q 2913 2066 3209 1816 
Q 3506 1566 3506 1031 
Q 3506 472 3093 190 
Q 2681 -91 1863 -91 
Q 1516 -91 1145 -36 
Q 775 19 384 128 
L 384 978 
Q 719 816 1070 734 
Q 1422 653 1784 653 
Q 2113 653 2278 743 
Q 2444 834 2444 1013 
Q 2444 1163 2330 1236 
Q 2216 1309 1875 1350 
L 1678 1375 
Q 931 1469 631 1722 
Q 331 1975 331 2491 
Q 331 3047 712 3315 
Q 1094 3584 1881 3584 
Q 2191 3584 2531 3537 
Q 2872 3491 3272 3391 
z
" transform="scale(0.015625)"/>
      <path id="DejaVuSans-Bold-74" d="M 1759 4494 
L 1759 3500 
L 2913 3500 
L 2913 2700 
L 1759 2700 
L 1759 1216 
Q 1759 972 1856 886 
Q 1953 800 2241 800 
L 2816 800 
L 2816 0 
L 1856 0 
Q 1194 0 917 276 
Q 641 553 641 1216 
L 641 2700 
L 84 2700 
L 84 3500 
L 641 3500 
L 641 4494 
L 1759 4494 
z
" transform="scale(0.015625)"/>
      <path id="DejaVuSans-Bold-72" d="M 3138 2547 
Q 2991 2616 2845 2648 
Q 2700 2681 2553 2681 
Q 2122 2681 1889 2404 
Q 1656 2128 1656 1613 
L 1656 0 
L 538 0 
L 538 3500 
L 1656 3500 
L 1656 2925 
Q 1872 3269 2151 3426 
Q 2431 3584 2822 3584 
Q 2878 3584 2943 3579 
Q 3009 3575 3134 3559 
L 3138 2547 
z
" transform="scale(0.015625)"/>
      <path id="DejaVuSans-Bold-61" d="M 2106 1575 
Q 1756 1575 1579 1456 
Q 1403 1338 1403 1106 
Q 1403 894 1545 773 
Q 1688 653 1941 653 
Q 2256 653 2472 879 
Q 2688 1106 2688 1447 
L 2688 1575 
L 2106 1575 
z
M 3816 1997 
L 3816 0 
L 2688 0 
L 2688 519 
Q 2463 200 2181 54 
Q 1900 -91 1497 -91 
Q 953 -91 614 226 
Q 275 544 275 1050 
Q 275 1666 698 1953 
Q 1122 2241 2028 2241 
L 2688 2241 
L 2688 2328 
Q 2688 2594 2478 2717 
Q 2269 2841 1825 2841 
Q 1466 2841 1156 2769 
Q 847 2697 581 2553 
L 581 3406 
Q 941 3494 1303 3539 
Q 1666 3584 2028 3584 
Q 2975 3584 3395 3211 
Q 3816 2838 3816 1997 
z
" transform="scale(0.015625)"/>
      <path id="DejaVuSans-Bold-69" d="M 538 3500 
L 1656 3500 
L 1656 0 
L 538 0 
L 538 3500 
z
M 538 4863 
L 1656 4863 
L 1656 3950 
L 538 3950 
L 538 4863 
z
" transform="scale(0.015625)"/>
      <path id="DejaVuSans-Bold-76" d="M 97 3500 
L 1216 3500 
L 2088 1081 
L 2956 3500 
L 4078 3500 
L 2700 0 
L 1472 0 
L 97 3500 
z
" transform="scale(0.015625)"/>
      <path id="DejaVuSans-Bold-65" d="M 4031 1759 
L 4031 1441 
L 1416 1441 
Q 1456 1047 1700 850 
Q 1944 653 2381 653 
Q 2734 653 3104 758 
Q 3475 863 3866 1075 
L 3866 213 
Q 3469 63 3072 -14 
Q 2675 -91 2278 -91 
Q 1328 -91 801 392 
Q 275 875 275 1747 
Q 275 2603 792 3093 
Q 1309 3584 2216 3584 
Q 3041 3584 3536 3087 
Q 4031 2591 4031 1759 
z
M 2881 2131 
Q 2881 2450 2695 2645 
Q 2509 2841 2209 2841 
Q 1884 2841 1681 2658 
Q 1478 2475 1428 2131 
L 2881 2131 
z
" transform="scale(0.015625)"/>
      <path id="DejaVuSans-Bold-20" transform="scale(0.015625)"/>
      <path id="DejaVuSans-Bold-77" d="M 225 3500 
L 1313 3500 
L 1900 1088 
L 2491 3500 
L 3425 3500 
L 4013 1113 
L 4603 3500 
L 5691 3500 
L 4769 0 
L 3547 0 
L 2956 2406 
L 2369 0 
L 1147 0 
L 225 3500 
z
" transform="scale(0.015625)"/>
      <path id="DejaVuSans-Bold-6b" d="M 538 4863 
L 1656 4863 
L 1656 2216 
L 2944 3500 
L 4244 3500 
L 2534 1894 
L 4378 0 
L 3022 0 
L 1656 1459 
L 1656 0 
L 538 0 
L 538 4863 
z
" transform="scale(0.015625)"/>
      <path id="DejaVuSans-Bold-79" d="M 78 3500 
L 1197 3500 
L 2138 1125 
L 2938 3500 
L 4056 3500 
L 2584 -331 
Q 2363 -916 2067 -1148 
Q 1772 -1381 1288 -1381 
L 641 -1381 
L 641 -647 
L 991 -647 
Q 1275 -647 1404 -556 
Q 1534 -466 1606 -231 
L 1638 -134 
L 78 3500 
z
" transform="scale(0.015625)"/>
      <path id="DejaVuSans-Bold-62" d="M 2400 722 
Q 2759 722 2948 984 
Q 3138 1247 3138 1747 
Q 3138 2247 2948 2509 
Q 2759 2772 2400 2772 
Q 2041 2772 1848 2508 
Q 1656 2244 1656 1747 
Q 1656 1250 1848 986 
Q 2041 722 2400 722 
z
M 1656 2988 
Q 1888 3294 2169 3439 
Q 2450 3584 2816 3584 
Q 3463 3584 3878 3070 
Q 4294 2556 4294 1747 
Q 4294 938 3878 423 
Q 3463 -91 2816 -91 
Q 2450 -91 2169 54 
Q 1888 200 1656 506 
L 1656 0 
L 538 0 
L 538 4863 
L 1656 4863 
L 1656 2988 
z
" transform="scale(0.015625)"/>
      <path id="DejaVuSans-Bold-63" d="M 3366 3391 
L 3366 2478 
Q 3138 2634 2908 2709 
Q 2678 2784 2431 2784 
Q 1963 2784 1702 2511 
Q 1441 2238 1441 1747 
Q 1441 1256 1702 982 
Q 1963 709 2431 709 
Q 2694 709 2930 787 
Q 3166 866 3366 1019 
L 3366 103 
Q 3103 6 2833 -42 
Q 2563 -91 2291 -91 
Q 1344 -91 809 395 
Q 275 881 275 1747 
Q 275 2613 809 3098 
Q 1344 3584 2291 3584 
Q 2566 3584 2833 3536 
Q 3100 3488 3366 3391 
z
" transform="scale(0.015625)"/>
      <path id="DejaVuSans-Bold-6f" d="M 2203 2784 
Q 1831 2784 1636 2517 
Q 1441 2250 1441 1747 
Q 1441 1244 1636 976 
Q 1831 709 2203 709 
Q 2569 709 2762 976 
Q 2956 1244 2956 1747 
Q 2956 2250 2762 2517 
Q 2569 2784 2203 2784 
z
M 2203 3584 
Q 3106 3584 3614 3096 
Q 4122 2609 4122 1747 
Q 4122 884 3614 396 
Q 3106 -91 2203 -91 
Q 1297 -91 786 396 
Q 275 884 275 1747 
Q 275 2609 786 3096 
Q 1297 3584 2203 3584 
z
" transform="scale(0.015625)"/>
      <path id="DejaVuSans-Bold-6e" d="M 4056 2131 
L 4056 0 
L 2931 0 
L 2931 347 
L 2931 1631 
Q 2931 2084 2911 2256 
Q 2891 2428 2841 2509 
Q 2775 2619 2662 2680 
Q 2550 2741 2406 2741 
Q 2056 2741 1856 2470 
Q 1656 2200 1656 1722 
L 1656 0 
L 538 0 
L 538 3500 
L 1656 3500 
L 1656 2988 
Q 1909 3294 2193 3439 
Q 2478 3584 2822 3584 
Q 3428 3584 3742 3212 
Q 4056 2841 4056 2131 
z
" transform="scale(0.015625)"/>
     </defs>
     <use xlink:href="#DejaVuSans-Bold-49"/>
     <use xlink:href="#DejaVuSans-Bold-6c" transform="translate(37.207031 0)"/>
     <use xlink:href="#DejaVuSans-Bold-6c" transform="translate(71.484375 0)"/>
     <use xlink:href="#DejaVuSans-Bold-75" transform="translate(105.761719 0)"/>
     <use xlink:href="#DejaVuSans-Bold-73" transform="translate(176.953125 0)"/>
     <use xlink:href="#DejaVuSans-Bold-74" transform="translate(236.474609 0)"/>
     <use xlink:href="#DejaVuSans-Bold-72" transform="translate(284.277344 0)"/>
     <use xlink:href="#DejaVuSans-Bold-61" transform="translate(333.59375 0)"/>
     <use xlink:href="#DejaVuSans-Bold-74" transform="translate(401.074219 0)"/>
     <use xlink:href="#DejaVuSans-Bold-69" transform="translate(448.876953 0)"/>
     <use xlink:href="#DejaVuSans-Bold-76" transform="translate(483.154297 0)"/>
     <use xlink:href="#DejaVuSans-Bold-65" transform="translate(548.339844 0)"/>
     <use xlink:href="#DejaVuSans-Bold-20" transform="translate(616.162109 0)"/>
     <use xlink:href="#DejaVuSans-Bold-77" transform="translate(650.976562 0)"/>
     <use xlink:href="#DejaVuSans-Bold-65" transform="translate(743.359375 0)"/>
     <use xlink:href="#DejaVuSans-Bold-65" transform="translate(811.181641 0)"/>
     <use xlink:href="#DejaVuSans-Bold-6b" transform="translate(879.003906 0)"/>
     <use xlink:href="#DejaVuSans-Bold-6c" transform="translate(945.507812 0)"/>
     <use xlink:href="#DejaVuSans-Bold-79" transform="translate(979.785156 0)"/>
     <use xlink:href="#DejaVuSans-Bold-20" transform="translate(1044.970703 0)"/>
     <use xlink:href="#DejaVuSans-Bold-62" transform="translate(1079.785156 0)"/>
     <use xlink:href="#DejaVuSans-Bold-61" transform="translate(1151.367188 0)"/>
     <use xlink:href="#DejaVuSans-Bold-73" transform="translate(1218.847656 0)"/>
     <use xlink:href="#DejaVuSans-Bold-6b" transform="translate(1278.369141 0)"/>
     <use xlink:href="#DejaVuSans-Bold-65" transform="translate(1342.248047 0)"/>
     <use xlink:href="#DejaVuSans-Bold-74" transform="translate(1410.070312 0)"/>
     <use xlink:href="#DejaVuSans-Bold-20" transform="translate(1457.873047 0)"/>
     <use xlink:href="#DejaVuSans-Bold-63" transform="translate(1492.6875 0)"/>
     <use xlink:href="#DejaVuSans-Bold-6f" transform="translate(1551.964844 0)"/>
     <use xlink:href="#DejaVuSans-Bold-73" transform="translate(1620.666016 0)"/>
     <use xlink:href="#DejaVuSans-Bold-74" transform="translate(1680.1875 0)"/>
     <use xlink:href="#DejaVuSans-Bold-20" transform="translate(1727.990234 0)"/>
     <use xlink:href="#DejaVuSans-Bold-62" transform="translate(1762.804688 0)"/>
     <use xlink:href="#DejaVuSans-Bold-79" transform="translate(1834.386719 0)"/>
     <use xlink:href="#DejaVuSans-Bold-20" transform="translate(1899.572266 0)"/>
     <use xlink:href="#DejaVuSans-Bold-73" transform="translate(1934.386719 0)"/>
     <use xlink:href="#DejaVuSans-Bold-63" transform="translate(1993.908203 0)"/>
     <use xlink:href="#DejaVuSans-Bold-65" transform="translate(2053.185547 0)"/>
     <use xlink:href="#DejaVuSans-Bold-6e" transform="translate(2121.007812 0)"/>
     <use xlink:href="#DejaVuSans-Bold-61" transform="translate(2192.199219 0)"/>
     <use xlink:href="#DejaVuSans-Bold-72" transform="translate(2259.679688 0)"/>
     <use xlink:href="#DejaVuSans-Bold-69" transform="translate(2308.996094 0)"/>
     <use xlink:href="#DejaVuSans-Bold-6f" transform="translate(2343.273438 0)"/>
    </g>
   </g>
  </g>
 </g>
 <defs>
  <clipPath id="pce872a3511">
   <rect x="78.96875" y="25.3575" width="554.78" height="275.32"/>
  </clipPath>
 </defs>
</svg>
